# xmcd
# 
# Track frame offsets:
#     150
#     44075
#     73687
#     91198
#     111392
#     123916
#     150845
#     167590
#     195169
#     226882
# 
# Disc length: 3532
# 
# Revision: 4
# Processed by: cddbd v1.5.2PL0 Copyright (c) Steve Scherf et al.
# Submitted via: fre:ac v1.0.31
# 
DISCID=750dca0a
DTITLE=Mojo Presents - The Musical Mojo Of Dr. John DIsc 2
DYEAR=2016
DGENRE=Rock/Pop
TTITLE0=Widespread Panic And The Dirty Dozen Brass Band Horns - Familiar Reality
TTITLE1=Warren Haynes - You Lie
TTITLE2=Chuck Leavell - Traveling Mood
TTITLE3=Ryan Bingham - Back By The River
TTITLE4=John Boutte - Let's Make A Better World
TTITLE5=Mavis Staples - Lay My Burden Down
TTITLE6=John Fogerty - New Orleans
TTITLE7=Dr. John And Terence Blanchard - Rain
TTITLE8=Dr. John And Sarah Morrow - I Walk On Guilded Splinters
TTITLE9=Dr. John And Sarah Morrow - Such A Night
EXTD=
EXTT0=
EXTT1=
EXTT2=
EXTT3=
EXTT4=
EXTT5=
EXTT6=
EXTT7=
EXTT8=
EXTT9=
PLAYORDER=
